<?xml version="1.0" encoding="UTF-8" standalone="no"?>
<!-- Created with Inkscape (http://www.inkscape.org/) -->

<svg
   width="166.50891mm"
   height="84.346008mm"
   viewBox="0 0 166.50891 84.346008"
   version="1.1"
   id="svg1"
   xml:space="preserve"
   xmlns="http://www.w3.org/2000/svg"
   xmlns:svg="http://www.w3.org/2000/svg"><defs
     id="defs1" /><g
     id="layer1"
     transform="translate(-20.205575,-26.80227)"><path
       style="fill:#000000"
       d="m 30.247824,111.60917 c -5.368217,-0.70044 -9.475407,-3.35699 -10.467772,-6.7706 -2.381691,-8.192729 9.306009,-17.752069 31.715351,-25.939918 6.575434,-2.402509 18.374407,-5.911142 25.836453,-7.682927 1.52148,-0.361259 2.925598,-0.745967 3.120262,-0.854907 0.568557,-0.31818 -2.679371,-3.498139 -4.895335,-4.792891 C 72.098286,63.547183 67.457378,61.809139 58.955114,59.350519 48.47392,56.319645 44.055476,54.489938 41.714774,52.211177 39.039765,49.606956 39.363537,46.661045 42.690406,43.334175 50.866681,35.1579 77.075605,26.20393 93.218654,26.071795 c 4.706684,-0.03852 6.528324,0.342763 7.940636,1.662059 0.73379,0.685465 0.83089,0.920174 0.68416,1.653806 -0.0941,0.470233 -0.39479,1.078768 -0.66832,1.352299 -0.48672,0.486717 -0.53881,0.483119 -2.440966,-0.168618 -1.068999,-0.36627 -2.666675,-0.747725 -3.55039,-0.847676 -4.23265,-0.478727 -15.154993,1.749164 -24.771264,5.052733 -9.532671,3.274849 -18.963721,8.063733 -22.144475,11.244487 -3.001354,3.001354 -1.211709,4.442661 9.761038,7.861139 16.832268,5.243968 19.557803,6.363014 23.897985,9.811998 1.944959,1.545588 3.452474,3.215865 4.137576,4.584298 0.404181,0.80732 0.531391,0.838961 1.862354,0.463235 0.793828,-0.224095 1.072524,-0.541087 1.952022,-2.220255 2.039206,-3.893319 6.786801,-9.387043 10.7976,-12.494541 4.98107,-3.859249 12.2091,-7.238535 17.20723,-8.04482 3.8617,-0.622959 7.2144,0.582845 8.39361,3.018772 0.77613,1.603278 0.79726,4.452111 0.0439,5.91356 -0.89421,1.734603 -1.55969,2.26398 -2.62807,2.090605 -1.47968,-0.240119 -1.8126,-0.731601 -1.41326,-2.086407 1.3429,-4.556001 0.94188,-5.491711 -2.35358,-5.491711 -2.03004,0 -4.20773,0.645792 -7.18859,2.131762 -1.91236,0.953319 -4.934,2.760836 -5.23165,3.129525 -0.0728,0.09013 -0.98814,0.855698 -2.03418,1.701271 -8.791925,7.107024 -13.950597,17.850915 -12.132768,25.268729 1.077946,4.398656 3.873292,6.514166 7.971128,6.032546 1.69628,-0.19936 5.41571,-1.48731 7.91561,-2.74098 2.91564,-1.46216 6.66964,-3.99607 7.53052,-5.083012 1.35386,-1.709384 2.12677,-3.529064 2.12677,-5.007079 0,-1.242368 -0.055,-1.3594 -0.71684,-1.525513 -0.51145,-0.128366 -1.79115,0.181422 -4.46623,1.08118 -3.83795,1.290886 -4.29477,1.332517 -5.5987,0.510213 -1.20679,-0.761045 -0.58563,-2.44034 1.25677,-3.39766 0.3638,-0.189033 1.85208,-0.736844 3.30729,-1.217358 2.30159,-0.759992 3.01286,-0.875869 5.46676,-0.890622 2.7224,-0.01637 2.86057,0.01089 3.95606,0.780452 1.55628,1.093259 2.18563,2.257553 2.20398,4.077323 0.008,0.811396 -0.0741,1.792302 -0.18282,2.179792 l -0.19768,0.704528 1.5206,-0.718397 c 0.83633,-0.395118 1.79876,-0.834564 2.13874,-0.976546 0.48167,-0.201158 1.04207,-1.278729 2.53838,-4.880923 3.43674,-8.273586 6.178,-13.97096 9.5573,-19.863701 3.48104,-6.070141 4.20071,-7.023149 5.99476,-7.938405 1.50168,-0.766099 4.02128,-0.619707 4.7464,0.27577 0.74827,0.924076 0.60174,1.611924 -0.7686,3.608014 -3.12948,4.558532 -6.33972,10.367025 -10.51805,19.030966 -1.54396,3.201458 -2.99028,6.156498 -3.21406,6.566755 -0.22378,0.410257 -0.35817,0.79462 -0.29865,0.854139 0.13916,0.139164 1.75619,-0.158324 8.3537,-1.536846 l 5.36765,-1.121548 1.52851,-3.453765 c 3.54761,-8.016031 11.07277,-21.601049 12.85442,-23.205824 0.44601,-0.401733 1.08601,-0.803398 1.42223,-0.89259 0.95238,-0.252654 2.71256,0.07608 3.46684,0.647486 1.14902,0.870436 0.88938,1.823833 -1.7068,6.267193 -2.10326,3.599728 -10.28816,19.443013 -10.11611,19.581479 0.0395,0.03181 2.81029,-0.21948 6.15727,-0.558417 9.751,-0.987449 22.43768,-1.522355 23.79086,-1.003088 0.6012,0.230699 0.56576,1.874576 -0.0445,2.064535 -0.25467,0.07927 -2.42756,0.265602 -4.82865,0.414072 -4.13652,0.255778 -5.6717,0.387222 -12.56771,1.076064 -4.24973,0.424506 -14.25747,1.847734 -14.46909,2.057689 -0.31393,0.311468 -2.75896,6.730061 -3.60618,9.466834 -1.56242,5.04704 -2.37255,10.41014 -2.02494,13.4052 0.15699,1.35256 0.32912,1.76123 1.00957,2.39687 l 0.82032,0.76629 -0.61759,0.50009 c -1.20939,0.979309 -3.2885,0.494279 -4.60918,-1.07526 -1.03506,-1.2301 -1.36553,-3.28275 -1.34377,-8.34653 0.0214,-4.97454 0.51809,-8.03649 1.99584,-12.30312 1.27049,-3.668199 1.2794,-3.704167 0.918,-3.704167 -0.17959,0 -3.05855,0.5992 -6.39767,1.331555 -3.33913,0.732355 -6.38505,1.39938 -6.76873,1.482278 -0.62566,0.135184 -0.80913,0.482115 -1.7794,3.3648 -1.58932,4.721874 -2.21949,8.170074 -2.11053,11.548454 l 0.0896,2.77812 -1.01604,-0.0323 c -3.3919,-0.10781 -4.69185,-4.78219 -3.28591,-11.81557 0.53345,-2.668663 0.56414,-3.091128 0.21352,-2.939256 -0.22522,0.09755 -1.07632,0.428466 -1.89134,0.735366 -1.75602,0.661242 -2.25097,1.033055 -2.42654,1.82285 -0.0718,0.32298 -0.62753,1.95645 -1.23496,3.62994 -2.45191,6.755 -3.592,13.38737 -2.95956,17.216919 0.38826,2.35105 0.92689,3.31854 2.21594,3.98031 1.35096,0.69355 1.33191,1.4804 -0.0589,2.43217 -1.31335,0.89878 -3.51534,0.36157 -5.12795,-1.25104 -3.62151,-3.62152 -4.01548,-11.936799 -0.98245,-20.736219 0.43295,-1.25608 0.76183,-2.30912 0.73085,-2.34011 -0.031,-0.031 -0.76966,0.4191 -1.64151,1.00019 -8.22699,5.48331 -17.017856,5.9529 -22.037632,1.1772 -2.217476,-2.10965 -3.250315,-4.37525 -3.635869,-7.975495 l -0.193319,-1.805183 -0.747102,2.292195 c -0.93744,2.876173 -2.02926,5.087623 -3.595394,7.282363 -7.955956,11.14928 -28.480255,22.377859 -43.586915,23.845849 -3.169001,0.30794 -6.624744,0.31635 -8.883735,0.0216 z m 10.054166,-0.56842 c 10.038991,-1.11099 24.805266,-7.69026 33.866665,-15.089639 2.91777,-2.3826 7.252964,-6.86998 8.649866,-8.95352 2.567256,-3.82917 3.823672,-9.633372 3.970465,-10.271952 0.06451,-0.280623 0.235141,-0.971998 0.340797,-1.493769 0.108907,-0.537828 0.224023,-1.104514 0.267905,-1.339444 0.07016,-0.244907 0.0613,-0.219581 0.17481,-0.591557 0.09999,-0.327665 0.0096,-0.01728 0.165669,-0.651454 0.158245,-0.642978 0.343965,-0.340765 0.317603,-0.203904 -0.130598,0.677995 -0.04206,0.287535 -0.157243,0.982481 -0.197526,1.191791 -0.56588,5.201936 -0.249047,6.822728 0.17068,0.873125 0.365934,1.885156 0.433899,2.248955 0.265045,1.41874 1.736174,3.93417 2.982874,5.10031 2.605428,2.43707 5.824813,3.54176 9.550947,3.27727 4.22763,-0.30009 7.7078,-1.59993 12.3957,-4.6298 1.20968,-0.78183 2.26113,-1.35981 2.33655,-1.28439 0.0754,0.0754 0.003,0.38726 -0.16036,0.69297 -0.46515,0.86914 -1.52364,4.16163 -2.13249,6.63323 -0.82157,3.33513 -0.99629,8.396915 -0.38963,11.287785 0.82697,3.94061 3.03968,6.43929 5.70233,6.43929 1.99517,0 2.80779,-1.38331 1.24343,-2.11667 -1.98546,-0.93075 -2.8183,-4.5784 -2.19221,-9.601315 0.52122,-4.18152 1.08444,-6.44268 3.01258,-12.09451 l 1.57962,-4.630208 1.80872,-0.678179 c 0.99479,-0.372999 2.0868,-0.82913 2.42669,-1.013624 0.33988,-0.184495 0.69057,-0.26285 0.77929,-0.174122 0.0887,0.08873 -0.10289,1.442468 -0.42581,3.008313 -0.34764,1.68564 -0.60689,3.97604 -0.63554,5.6148 -0.0431,2.46589 0.0225,2.90971 0.6016,4.06862 0.7128,1.42652 1.61364,2.22429 2.63436,2.33294 0.65079,0.0693 0.66039,0.0427 0.59511,-1.64937 -0.12615,-3.27031 0.57405,-7.15566 2.21529,-12.29235 1.1516,-3.604246 0.93391,-3.406688 4.7873,-4.344484 3.16119,-0.769337 10.80509,-2.406228 11.2589,-2.411021 0.22426,-0.0024 -0.0308,1.297603 -0.33703,1.717643 -0.58285,0.799515 -2.1727,6.801492 -2.63896,9.962582 -0.59964,4.06534 -0.27936,10.58623 0.60384,12.29414 0.76794,1.48504 2.44557,2.390235 3.79989,2.050325 0.68622,-0.172225 0.82712,-0.754465 0.23734,-0.980785 -1.31335,-0.50398 -1.2259,-7.73918 0.15543,-12.85901 1.13375,-4.20219 4.00629,-12.286953 4.59601,-12.935444 0.47372,-0.520937 11.64353,-2.025485 20.89667,-2.814732 11.71157,-0.998939 11.36008,-0.946832 11.46654,-1.699881 l 0.0895,-0.632805 -8.29154,0.154634 c -4.56035,0.08505 -9.89889,0.328072 -11.86342,0.540053 -6.55282,0.707074 -10.33176,1.042986 -10.44618,0.928565 -0.29643,-0.296429 8.12816,-16.676596 11.47855,-22.318058 1.38108,-2.325509 1.38138,-3.209685 0.001,-3.948608 -0.84746,-0.45375 -1.08039,-0.472713 -2.14506,-0.174625 -0.65689,0.183921 -1.49261,0.610957 -1.85714,0.948969 -1.68683,1.564119 -8.98376,14.87301 -12.62019,23.018014 -0.77963,1.74625 -1.50198,3.269914 -1.60522,3.38592 -0.10324,0.116005 -1.72395,0.509112 -3.60158,0.873569 -3.35214,0.650666 -8.37531,1.751049 -10.11894,2.21667 -0.85498,0.228313 -0.87866,0.213897 -0.71563,-0.435658 0.19523,-0.777876 7.24811,-15.134884 8.88132,-18.079043 1.86118,-3.355107 3.19467,-5.587239 4.81534,-8.06044 1.18238,-1.804335 1.53547,-2.563631 1.47563,-3.17316 -0.10775,-1.097344 -1.1298,-1.571631 -2.87078,-1.332186 -2.45263,0.337324 -3.57175,1.524694 -6.90366,7.32472 -3.83693,6.679126 -6.91113,12.973811 -9.6666,19.793149 -2.47236,6.118703 -2.22408,5.756301 -4.54292,6.631015 -0.48759,0.183931 -1.30523,0.61855 -1.81696,0.965821 -0.51173,0.347271 -0.96546,0.595752 -1.00829,0.552179 -0.0428,-0.04357 0.0422,-0.734067 0.18899,-1.534431 0.55327,-3.017031 -0.17961,-5.073482 -2.16575,-6.077106 -2.12234,-1.072451 -4.70756,-0.917415 -9.18092,0.55058 -3.04275,0.998522 -4.15047,1.710448 -4.26938,2.7439 -0.18825,1.636107 1.35644,1.861051 4.74286,0.690674 4.54263,-1.569978 5.2131,-1.708954 5.94164,-1.231597 1.25589,0.822893 0.75724,3.255068 -1.3504,6.586525 -1.25261,1.979944 -7.83366,5.913377 -12.75049,7.620837 -3.84709,1.33598 -7.703966,0.87875 -9.492804,-1.12536 -1.800286,-2.01694 -2.47968,-4.075715 -2.498947,-7.572601 -0.01977,-3.588507 0.701306,-6.475781 2.530832,-10.133716 2.254429,-4.507482 5.654679,-8.694719 10.042349,-12.36664 5.05134,-4.227327 10.22702,-6.802103 14.30089,-7.114338 1.64863,-0.126356 1.95381,-0.07262 2.77812,0.489205 0.81152,0.5531 0.93611,0.787739 1.00743,1.897288 0.068,1.058673 -0.2143,2.363274 -0.93512,4.320819 -0.0634,0.172065 0.26762,0.510806 0.7355,0.752758 0.80535,0.416464 0.88759,0.413066 1.5428,-0.06375 2.27486,-1.655486 2.52295,-6.274051 0.44845,-8.348552 -1.69736,-1.69736 -3.9412,-2.128723 -7.80885,-1.501198 -4.80228,0.77917 -12.36022,4.487142 -16.95048,8.316008 -4.741154,3.954738 -8.031074,7.822789 -10.208551,12.002483 -1.027963,1.973186 -1.335668,2.228837 -3.075512,2.555234 -0.866589,0.162573 -0.926739,0.121199 -1.41731,-0.9749 -1.854337,-4.14321 -8.56162,-8.19027 -18.900853,-11.404451 -2.110052,-0.655956 -6.217708,-1.933408 -9.128124,-2.83878 -5.447501,-1.69461 -9.666916,-3.483608 -10.570132,-4.481651 -0.63484,-0.70149 -0.634552,-2.071862 6.4e-4,-3.041286 1.784296,-2.72318 12.647667,-8.571179 21.946574,-11.814338 13.678261,-4.770536 25.147986,-6.613332 29.709273,-4.773273 1.783675,0.719548 2.118415,0.709056 2.476855,-0.07764 0.533,-1.169812 0.0842,-1.976649 -1.504,-2.703744 -3.809682,-1.74413 -15.510455,-0.712567 -26.977961,2.378431 -8.598286,2.317616 -17.166644,5.769608 -23.944791,9.6468 -3.943766,2.255887 -6.802088,4.822237 -7.830268,7.03042 -0.767322,1.647949 -0.801023,2.773846 -0.122819,4.103236 1.419822,2.783081 5.890894,4.946112 16.534592,7.999163 10.974708,3.147999 15.271239,4.805694 19.418461,7.492067 2.223309,1.440154 4.279199,3.628779 4.279199,4.555479 0,0.178344 -0.671461,0.448344 -1.521354,0.611749 -0.836744,0.160878 -2.116666,0.455481 -2.84427,0.654675 -0.727604,0.199193 -2.989792,0.804137 -5.027083,1.344319 -28.731504,7.618147 -45.968013,16.38213 -50.894473,25.87766 -0.597053,1.150799 -0.698533,1.676889 -0.695821,3.607299 0.0036,2.55274 0.468777,3.74828 2.024161,5.20209 3.440663,3.21597 9.193558,4.2399 18.213288,3.24171 z m -7.540624,-3.34202 c -4.066018,-0.32745 -7.024972,-2.7928 -6.648506,-5.53942 0.878297,-6.407869 13.66605,-14.785159 33.768296,-22.121712 5.276004,-1.925539 21.015229,-6.79834 21.958748,-6.79834 0.262076,0 0.3078,0.504421 0.197862,2.182812 -0.363971,5.556668 -4.252378,11.455971 -11.23104,17.039201 -11.173616,8.939369 -28.764968,15.984839 -38.04536,15.237459 z m 6.044386,-0.73926 c 4.850011,-0.84836 11.556563,-3.10692 17.106654,-5.76098 12.584033,-6.017699 21.565411,-13.705959 24.595679,-21.054434 1.082855,-2.625951 1.689211,-5.931713 1.181199,-6.439724 -0.08376,-0.08376 -0.827898,0.06491 -1.653645,0.330378 -0.825748,0.265466 -2.98964,0.915892 -4.808651,1.445392 -26.238561,7.637849 -43.994564,16.799149 -48.042784,24.787918 -2.568078,5.06786 2.900991,8.21684 11.621548,6.69145 z"
       id="path1" /><path
       style="fill:#ffffff;stroke-width:1.41421"
       d="m 112.62489,419.26873 c -4.55971,-0.7186 -11.87827,-2.94748 -16.26346,-4.95308 -14.150787,-6.47193 -19.993898,-14.37314 -19.993898,-27.03632 0,-8.83144 4.171178,-17.10615 13.971207,-27.71582 30.930361,-33.48569 94.494561,-60.66704 211.242301,-90.33154 7.26892,-1.84697 6.81149,-4.56738 -2.24256,-13.33691 -10.3624,-10.03678 -28.48764,-18.77567 -58.73568,-28.31879 -13.71438,-4.32682 -32.23844,-10.15797 -41.16458,-12.95811 -21.18075,-6.64441 -37.09303,-14.63513 -42.02816,-21.10541 -11.28712,-14.79819 3.85877,-32.89374 44.11537,-52.70685 51.13894,-25.16906 112.6394,-40.823981 154.85639,-39.41862 18.6327,0.62026 25.45584,2.9989 25.45584,8.87423 0,4.75585 -1.61495,5.29957 -8.5125,2.86597 -18.84027,-6.64723 -69.576,1.87086 -118.3045,19.8623 -30.58545,11.2927 -71.81746,33.84227 -77.36665,42.3114 -5.1176,7.81045 -1.77889,14.1774 10.1708,19.39578 3.64626,1.5923 25.52779,9.12791 48.62563,16.7458 45.89018,15.13501 62.24725,22.57973 75.43398,34.33288 4.30874,3.84032 9.1178,9.4987 10.68679,12.57417 2.65213,5.1986 3.17041,5.52386 7.3715,4.62597 6.13838,-1.31192 6.57402,-1.76089 14.85139,-15.30634 14.76919,-24.16889 39.54058,-46.10634 67.2674,-59.57174 31.64437,-15.36793 53.70586,-16.31406 62.63519,-2.68616 5.8159,8.87619 1.31175,26.72049 -6.74462,26.72049 -3.68171,0 -3.59752,0.69794 -1.80911,-14.99803 0.82471,-7.23795 0.61456,-8.12915 -2.41774,-10.25305 -1.91241,-1.33951 -6.07769,-2.32608 -9.82067,-2.32608 -30.39608,0 -78.09222,38.13104 -96.26082,76.95645 -12.15832,25.98174 -10.34176,55.98121 4.05475,66.96197 6.61033,5.04194 21.71993,6.13853 33.11373,2.40324 10.05668,-3.29694 28.2406,-12.46503 38.4041,-19.36286 12.62938,-8.57138 21.69053,-25.19815 18.06672,-33.15156 -1.94187,-4.26194 -6.2025,-4.24713 -19.9479,0.0693 -15.77624,4.95418 -17.66388,5.25024 -20.45648,3.20822 -5.85403,-4.28057 3.73535,-10.58602 23.93559,-15.73876 10.67026,-2.7218 14.87757,-2.70426 21.86404,0.0912 8.12053,3.2492 10.46471,7.6491 10.25067,19.23992 -0.0978,5.29735 0.0251,9.63155 0.27306,9.63155 1.52954,0 17.86791,-8.89616 19.12895,-10.41563 0.84393,-1.01686 4.68628,-9.51655 8.53857,-18.88819 19.70357,-47.9338 45.51394,-94.66117 55.72691,-100.88854 7.47599,-4.5585 16.5032,-3.07514 16.5032,2.71181 0,1.13379 -3.22631,7.14314 -7.16954,13.35412 -18.64238,29.36345 -52.52896,97.51345 -48.87443,98.29237 1.73443,0.36967 45.01157,-8.33675 52.23065,-10.50767 1.61296,-0.48504 6.63726,-9.28658 13.66654,-23.94088 12.45349,-25.96245 27.04252,-53.07925 36.33335,-67.53323 8.48743,-13.20409 18.86258,-17.39954 23.16195,-9.36612 1.2016,2.24521 -0.5817,6.46411 -9.9723,23.59231 -6.28956,11.47198 -17.2002,32.31328 -24.24584,46.314 l -12.81029,25.45584 4.64582,0.46177 c 2.55519,0.25396 15.19316,-0.51838 28.08437,-1.71633 32.43126,-3.01375 83.54264,-4.53596 83.54264,-2.48807 0,2.27599 -2.55655,2.65998 -43.84062,6.58461 -44.80592,4.25944 -76.4698,8.69283 -78.69972,11.01908 -2.39155,2.49487 -12.70327,31.47495 -16.77337,47.13991 -4.61595,17.76583 -6.01018,38.64086 -3.12897,46.84829 2.40313,6.84557 1.28565,8.38652 -4.14905,5.7213 -6.74911,-3.30983 -8.98036,-8.04933 -10.44243,-22.18121 -1.9832,-19.16903 2.12063,-47.6772 9.35609,-64.99407 2.44056,-5.8411 2.59639,-10.13182 0.36799,-10.13182 -3.38076,0 -47.31598,10.2308 -51.57764,12.01042 -3.83717,1.60236 -4.92637,3.3441 -8.09932,12.95168 -5.1101,15.4732 -7.6981,27.53886 -8.82688,41.15238 -1.10553,13.33309 -2.53911,14.44718 -8.51262,6.61549 -5.07674,-6.65595 -5.76614,-15.61998 -2.70341,-35.15153 1.3116,-8.36424 2.05399,-15.53843 1.64978,-15.94266 -0.40422,-0.40421 -5.1357,0.99165 -10.51441,3.10191 l -9.77945,3.83685 -6.63989,20.82903 c -7.78966,24.43578 -10.62421,38.953 -10.6494,54.54112 -0.0203,12.54681 3.12695,21.92408 8.28466,24.68439 3.49319,1.86951 3.8561,5.07037 0.71166,6.27701 -7.7132,2.95983 -16.03281,-2.09809 -21.35959,-12.98562 -3.34181,-6.83044 -4.01447,-10.21464 -4.46857,-22.48214 -0.622,-16.80282 1.12782,-28.42549 6.83759,-45.41694 2.25809,-6.71977 3.86776,-12.45563 3.57703,-12.74637 -0.29073,-0.29072 -6.73656,3.01808 -14.32406,7.35288 -19.5034,11.1425 -29.37553,14.24069 -45.10005,14.1539 -8.47809,-0.0468 -14.38063,-0.82055 -17.67767,-2.31737 -20.88428,-9.48116 -29.77474,-27.5523 -26.96366,-54.80758 1.13028,-10.9588 1.01757,-14.23048 -0.43439,-12.61007 -0.29041,0.32409 -2.43689,8.25169 -4.76995,17.6169 -7.45997,29.94522 -17.0159,45.289 -41.69565,66.95008 -29.99579,26.32689 -80.74952,51.59114 -119.50437,59.487 -16.36191,3.33356 -41.60645,4.69062 -53.21733,2.86079 z m 49.30256,-16.22307 c 34.88498,-9.06271 74.84935,-28.80286 103.23759,-50.99354 28.61783,-22.37015 43.4265,-44.04201 45.53684,-66.6412 0.7784,-8.33558 0.6403,-8.93217 -2.06762,-8.93217 -3.56503,0 -46.07512,12.89518 -73.93784,22.42861 -83.18974,28.46394 -141.036023,67.24654 -136.485044,91.50534 1.187843,6.33176 7.947144,12.82729 16.079524,15.45205 9.36823,3.02365 29.80068,1.81447 47.63655,-2.81909 z"
       id="path2"
       transform="scale(0.26458333)" /></g></svg>
