<?xml version="1.0" encoding="UTF-8" standalone="no"?>
<!-- Created with Inkscape (http://www.inkscape.org/) -->

<svg
   width="167.68419mm"
   height="85.755325mm"
   viewBox="0 0 167.68419 85.755325"
   version="1.1"
   id="svg1"
   xml:space="preserve"
   xmlns="http://www.w3.org/2000/svg"
   xmlns:svg="http://www.w3.org/2000/svg"><defs
     id="defs1" /><g
     id="layer1"
     transform="translate(-12.058013,-133.30138)"><path
       style="fill:#000000"
       d="m 22.830229,218.84135 c -5.368217,-0.70044 -9.475407,-3.35699 -10.467772,-6.7706 -2.3816912,-8.19273 9.306009,-17.75207 31.715351,-25.93992 6.575434,-2.40251 18.374407,-5.91114 25.836453,-7.68293 1.52148,-0.36125 2.925598,-0.74596 3.120262,-0.8549 0.568557,-0.31818 -2.679371,-3.49814 -4.895335,-4.79289 -3.458497,-2.02075 -8.099405,-3.75879 -16.601669,-6.21741 -10.481194,-3.03088 -14.899638,-4.86058 -17.24034,-7.13934 -2.675009,-2.60422 -2.351237,-5.55014 0.975632,-8.877 8.176275,-8.17628 34.385199,-17.13025 50.528248,-17.26239 4.706681,-0.0385 6.528321,0.34277 7.940641,1.66206 0.73379,0.68547 0.83089,0.92018 0.68416,1.65381 -0.0941,0.47023 -0.39479,1.07877 -0.66832,1.3523 -0.48672,0.48672 -0.53881,0.48312 -2.44097,-0.16862 -1.069,-0.36627 -2.666676,-0.74772 -3.550391,-0.84768 -4.23265,-0.47872 -15.154993,1.74917 -24.771264,5.05274 -9.532671,3.27485 -18.963721,8.06373 -22.144475,11.24448 -3.001354,3.00136 -1.211709,4.44267 9.761038,7.86114 16.832268,5.24397 19.557803,6.36302 23.897985,9.812 1.944959,1.54559 3.452474,3.21587 4.137576,4.5843 0.404181,0.80732 0.531391,0.83896 1.862354,0.46323 0.793828,-0.22409 1.072524,-0.54108 1.952022,-2.22025 2.039206,-3.89332 6.786805,-9.38704 10.797605,-12.49454 4.98107,-3.85925 12.2091,-7.23854 17.20723,-8.04482 3.8617,-0.62296 7.2144,0.58284 8.39361,3.01877 0.77613,1.60328 0.79726,4.45211 0.0439,5.91356 -0.89421,1.7346 -1.55969,2.26398 -2.62807,2.09061 -1.47968,-0.24012 -1.8126,-0.73161 -1.41326,-2.08641 1.3429,-4.556 0.94188,-5.49171 -2.35358,-5.49171 -2.03004,0 -4.20773,0.64579 -7.18859,2.13176 -1.91236,0.95332 -4.934,2.76084 -5.23165,3.12953 -0.0728,0.0901 -0.98814,0.85569 -2.03418,1.70127 -8.79193,7.10702 -13.950602,17.85091 -12.132773,25.26873 1.077946,4.39865 3.873293,6.51416 7.971133,6.03254 1.69628,-0.19936 5.41571,-1.48731 7.91561,-2.74098 2.91564,-1.46216 6.66964,-3.99607 7.53052,-5.08301 1.35386,-1.70939 2.12677,-3.52907 2.12677,-5.00708 0,-1.24237 -0.055,-1.3594 -0.71684,-1.52551 -0.51145,-0.12837 -1.79115,0.18142 -4.46623,1.08118 -3.83795,1.29088 -4.29477,1.33251 -5.5987,0.51021 -1.20679,-0.76105 -0.58563,-2.44034 1.25677,-3.39766 0.3638,-0.18903 1.85208,-0.73684 3.30729,-1.21736 2.30159,-0.75999 3.01286,-0.87587 5.46676,-0.89062 2.7224,-0.0164 2.86057,0.0109 3.95606,0.78045 1.55628,1.09326 2.18563,2.25755 2.20398,4.07732 0.008,0.8114 -0.0741,1.79231 -0.18282,2.1798 l -0.19768,0.70452 1.5206,-0.71839 c 0.83633,-0.39512 1.79876,-0.83457 2.13874,-0.97655 0.48167,-0.20116 1.04207,-1.27873 2.53838,-4.88092 3.43674,-8.27359 6.178,-13.97096 9.5573,-19.8637 3.48104,-6.07014 4.20071,-7.02315 5.99476,-7.93841 1.50168,-0.7661 4.02128,-0.6197 4.7464,0.27577 0.74827,0.92408 0.60174,1.61193 -0.7686,3.60802 -3.12948,4.55853 -6.33972,10.36702 -10.51805,19.03096 -1.54396,3.20146 -2.99028,6.1565 -3.21406,6.56676 -0.22378,0.41025 -0.35817,0.79462 -0.29865,0.85414 0.13916,0.13916 1.75619,-0.15833 8.3537,-1.53685 l 5.36765,-1.12155 1.52851,-3.45376 c 3.54761,-8.01603 11.07277,-21.60105 12.85442,-23.20583 0.44601,-0.40173 1.08601,-0.80339 1.42223,-0.89259 0.95238,-0.25265 2.71256,0.0761 3.46684,0.64749 1.14902,0.87044 0.88938,1.82383 -1.7068,6.26719 -2.10326,3.59973 -10.28816,19.44302 -10.11611,19.58148 0.0395,0.0318 2.81029,-0.21948 6.15727,-0.55842 9.751,-0.98744 22.43768,-1.52235 23.79086,-1.00308 0.6012,0.2307 0.56576,1.87457 -0.0445,2.06453 -0.25467,0.0793 -2.42756,0.2656 -4.82865,0.41407 -4.13652,0.25578 -5.6717,0.38723 -12.56771,1.07607 -4.24973,0.4245 -14.25747,1.84773 -14.46909,2.05769 -0.31393,0.31146 -2.75896,6.73006 -3.60618,9.46683 -1.56242,5.04704 -2.37255,10.41014 -2.02494,13.4052 0.15699,1.35256 0.32912,1.76123 1.00957,2.39687 l 0.82032,0.76629 -0.61759,0.50009 c -1.20939,0.97931 -3.2885,0.49428 -4.60918,-1.07526 -1.03506,-1.2301 -1.36553,-3.28275 -1.34377,-8.34653 0.0214,-4.97454 0.51809,-8.03649 1.99584,-12.30312 1.27049,-3.6682 1.2794,-3.70417 0.918,-3.70417 -0.17959,0 -3.05855,0.5992 -6.39767,1.33156 -3.33913,0.73235 -6.38505,1.39938 -6.76873,1.48228 -0.62566,0.13518 -0.80913,0.48211 -1.7794,3.3648 -1.58932,4.72187 -2.21949,8.17007 -2.11053,11.54845 l 0.0896,2.77812 -1.01604,-0.0323 c -3.3919,-0.10781 -4.69185,-4.78219 -3.28591,-11.81557 0.53345,-2.66866 0.56414,-3.09113 0.21352,-2.93926 -0.22522,0.0976 -1.07632,0.42847 -1.89134,0.73537 -1.75602,0.66124 -2.25097,1.03306 -2.42654,1.82285 -0.0718,0.32298 -0.62753,1.95645 -1.23496,3.62994 -2.45191,6.755 -3.592,13.38737 -2.95956,17.21692 0.38826,2.35105 0.92689,3.31854 2.21594,3.98031 1.35096,0.69355 1.33191,1.4804 -0.0589,2.43217 -1.31335,0.89878 -3.51534,0.36157 -5.12795,-1.25104 -3.62151,-3.62152 -4.01548,-11.9368 -0.98245,-20.73622 0.43295,-1.25608 0.76183,-2.30912 0.73085,-2.34011 -0.031,-0.031 -0.76966,0.4191 -1.64151,1.00019 -8.22699,5.48331 -17.017861,5.9529 -22.037637,1.1772 -2.217476,-2.10965 -3.250315,-4.37525 -3.635869,-7.97549 l -0.193319,-1.80519 -0.747102,2.2922 c -0.93744,2.87617 -2.02926,5.08762 -3.595394,7.28236 -7.955956,11.14928 -28.480255,22.37786 -43.586915,23.84585 -3.169001,0.30794 -6.624744,0.31635 -8.883735,0.0216 z m 10.054166,-0.56842 c 10.038991,-1.11099 24.805266,-7.69026 33.866665,-15.08964 2.91777,-2.3826 7.252964,-6.86998 8.649866,-8.95352 2.567256,-3.82917 3.823672,-9.63337 3.970465,-10.27195 0.06451,-0.28062 0.235141,-0.972 0.340797,-1.49377 0.108907,-0.53783 0.224023,-1.10451 0.267905,-1.33944 0.07016,-0.24491 0.0613,-0.21959 0.17481,-0.59156 0.09999,-0.32767 0.0096,-0.0173 0.165669,-0.65146 0.158245,-0.64297 0.343965,-0.34076 0.317603,-0.2039 -0.130598,0.678 -0.04206,0.28754 -0.157243,0.98248 -0.197526,1.19179 -0.56588,5.20194 -0.249047,6.82273 0.17068,0.87313 0.365934,1.88516 0.433899,2.24896 0.265045,1.41873 1.736174,3.93417 2.982874,5.1003 2.605428,2.43707 5.824812,3.54177 9.550952,3.27727 4.22763,-0.30009 7.7078,-1.59992 12.3957,-4.6298 1.20968,-0.78183 2.26113,-1.3598 2.33655,-1.28439 0.0754,0.0754 0.003,0.38726 -0.16036,0.69297 -0.46515,0.86914 -1.52364,4.16163 -2.13249,6.63323 -0.82157,3.33513 -0.99629,8.39692 -0.38963,11.28779 0.82697,3.94061 3.03968,6.43929 5.70233,6.43929 1.99517,0 2.80779,-1.38331 1.24343,-2.11667 -1.98546,-0.93075 -2.8183,-4.5784 -2.19221,-9.60131 0.52122,-4.18153 1.08444,-6.44268 3.01258,-12.09452 l 1.57962,-4.6302 1.80872,-0.67818 c 0.99479,-0.373 2.0868,-0.82913 2.42669,-1.01363 0.33988,-0.18449 0.69057,-0.26285 0.77929,-0.17412 0.0887,0.0887 -0.10289,1.44247 -0.42581,3.00831 -0.34764,1.68564 -0.60689,3.97604 -0.63554,5.6148 -0.0431,2.46589 0.0225,2.90972 0.6016,4.06863 0.7128,1.42651 1.61364,2.22428 2.63436,2.33293 0.65079,0.0693 0.66039,0.0427 0.59511,-1.64937 -0.12615,-3.27031 0.57405,-7.15566 2.21529,-12.29235 1.1516,-3.60424 0.93391,-3.40668 4.7873,-4.34448 3.16119,-0.76934 10.80509,-2.40623 11.2589,-2.41102 0.22426,-0.002 -0.0308,1.2976 -0.33703,1.71764 -0.58285,0.79952 -2.1727,6.80149 -2.63896,9.96258 -0.59964,4.06534 -0.27936,10.58623 0.60384,12.29414 0.76794,1.48504 2.44557,2.39024 3.79989,2.05033 0.68622,-0.17223 0.82712,-0.75447 0.23734,-0.98079 -1.31335,-0.50398 -1.2259,-7.73918 0.15543,-12.85901 1.13375,-4.20219 4.00629,-12.28695 4.59601,-12.93544 0.47372,-0.52094 11.64353,-2.02548 20.89667,-2.81473 11.71157,-0.99894 11.36008,-0.94683 11.46654,-1.69988 l 0.0895,-0.63281 -8.29154,0.15464 c -4.56035,0.085 -9.89889,0.32807 -11.86342,0.54005 -6.55282,0.70707 -10.33176,1.04299 -10.44618,0.92856 -0.29643,-0.29642 8.12816,-16.67659 11.47855,-22.31805 1.38108,-2.32551 1.38138,-3.20969 0.001,-3.94861 -0.84746,-0.45375 -1.08039,-0.47271 -2.14506,-0.17463 -0.65689,0.18392 -1.49261,0.61096 -1.85714,0.94897 -1.68683,1.56412 -8.98376,14.87301 -12.62019,23.01802 -0.77963,1.74625 -1.50198,3.26991 -1.60522,3.38592 -0.10324,0.116 -1.72395,0.50911 -3.60158,0.87357 -3.35214,0.65066 -8.37531,1.75104 -10.11894,2.21667 -0.85498,0.22831 -0.87866,0.21389 -0.71563,-0.43566 0.19523,-0.77788 7.24811,-15.13489 8.88132,-18.07905 1.86118,-3.3551 3.19467,-5.58723 4.81534,-8.06044 1.18238,-1.80433 1.53547,-2.56363 1.47563,-3.17316 -0.10775,-1.09734 -1.1298,-1.57163 -2.87078,-1.33218 -2.45263,0.33732 -3.57175,1.52469 -6.90366,7.32472 -3.83693,6.67912 -6.91113,12.97381 -9.6666,19.79315 -2.47236,6.1187 -2.22408,5.7563 -4.54292,6.63101 -0.48759,0.18393 -1.30523,0.61855 -1.81696,0.96582 -0.51173,0.34727 -0.96546,0.59576 -1.00829,0.55218 -0.0428,-0.0436 0.0422,-0.73406 0.18899,-1.53443 0.55327,-3.01703 -0.17961,-5.07348 -2.16575,-6.0771 -2.12234,-1.07246 -4.70756,-0.91742 -9.18092,0.55058 -3.04275,0.99852 -4.15047,1.71044 -4.26938,2.7439 -0.18825,1.6361 1.35644,1.86105 4.74286,0.69067 4.54263,-1.56998 5.2131,-1.70895 5.94164,-1.2316 1.25589,0.8229 0.75724,3.25507 -1.3504,6.58653 -1.25261,1.97994 -7.83366,5.91337 -12.75049,7.62083 -3.84709,1.33598 -7.70397,0.87875 -9.492809,-1.12536 -1.800286,-2.01694 -2.47968,-4.07571 -2.498947,-7.5726 -0.01977,-3.5885 0.701306,-6.47578 2.530832,-10.13371 2.254434,-4.50748 5.654684,-8.69472 10.042354,-12.36664 5.05134,-4.22733 10.22702,-6.80211 14.30089,-7.11434 1.64863,-0.12636 1.95381,-0.0726 2.77812,0.4892 0.81152,0.5531 0.93611,0.78774 1.00743,1.89729 0.068,1.05868 -0.2143,2.36328 -0.93512,4.32082 -0.0634,0.17207 0.26762,0.51081 0.7355,0.75276 0.80535,0.41646 0.88759,0.41307 1.5428,-0.0637 2.27486,-1.65549 2.52295,-6.27405 0.44845,-8.34855 -1.69736,-1.69736 -3.9412,-2.12873 -7.80885,-1.5012 -4.80228,0.77917 -12.36022,4.48714 -16.95048,8.31601 -4.741159,3.95474 -8.031079,7.82279 -10.208556,12.00248 -1.027963,1.97319 -1.335668,2.22884 -3.075512,2.55523 -0.866589,0.16258 -0.926739,0.1212 -1.41731,-0.9749 -1.854337,-4.14321 -8.56162,-8.19027 -18.900853,-11.40445 -2.110052,-0.65595 -6.217708,-1.9334 -9.128124,-2.83878 -5.447501,-1.69461 -9.666916,-3.4836 -10.570132,-4.48165 -0.63484,-0.70149 -0.634552,-2.07186 6.4e-4,-3.04128 1.784296,-2.72318 12.647667,-8.57118 21.946574,-11.81434 13.678261,-4.77054 25.147986,-6.61333 29.709273,-4.77327 1.78368,0.71954 2.11842,0.70905 2.47686,-0.0776 0.533,-1.16982 0.0842,-1.97665 -1.504,-2.70375 -3.809687,-1.74413 -15.51046,-0.71257 -26.977966,2.37843 -8.598286,2.31762 -17.166644,5.76961 -23.944791,9.6468 -3.943766,2.25589 -6.802088,4.82224 -7.830268,7.03042 -0.767322,1.64795 -0.801023,2.77385 -0.122819,4.10324 1.419822,2.78308 5.890894,4.94611 16.534592,7.99916 10.974708,3.148 15.271239,4.8057 19.418461,7.49207 2.223309,1.44015 4.279199,3.62878 4.279199,4.55548 0,0.17834 -0.671461,0.44834 -1.521354,0.61175 -0.836744,0.16087 -2.116666,0.45548 -2.84427,0.65467 -0.727604,0.19919 -2.989792,0.80414 -5.027083,1.34432 -28.731504,7.61815 -45.968013,16.38213 -50.894473,25.87766 -0.597053,1.1508 -0.698533,1.67689 -0.695821,3.6073 0.0036,2.55274 0.468777,3.74828 2.024161,5.20209 3.440663,3.21597 9.193558,4.2399 18.213288,3.24171 z m -7.540624,-3.34202 c -4.066018,-0.32745 -7.024972,-2.7928 -6.648506,-5.53942 0.878297,-6.40787 13.66605,-14.78516 33.768296,-22.12171 5.276004,-1.92554 21.015229,-6.79834 21.958748,-6.79834 0.262076,0 0.3078,0.50442 0.197862,2.18281 -0.363971,5.55667 -4.252378,11.45597 -11.23104,17.0392 -11.173616,8.93937 -28.764968,15.98484 -38.04536,15.23746 z m 6.044386,-0.73926 c 4.850011,-0.84836 11.556563,-3.10692 17.106654,-5.76098 12.584033,-6.0177 21.565411,-13.70596 24.595679,-21.05443 1.082855,-2.62596 1.689211,-5.93172 1.181199,-6.43973 -0.08376,-0.0838 -0.827898,0.0649 -1.653645,0.33038 -0.825748,0.26547 -2.98964,0.91589 -4.808651,1.44539 -26.238561,7.63785 -43.994564,16.79915 -48.042784,24.78792 -2.568078,5.06786 2.900991,8.21684 11.621548,6.69145 z"
       id="path1-3" /><path
       style="fill:#ffffff;stroke-width:0.374176"
       d="m 22.381074,218.1637 c -1.206424,-0.19013 -3.142792,-0.77986 -4.303041,-1.31051 -3.744062,-1.71236 -5.290052,-3.80289 -5.290052,-7.15336 0,-2.33665 1.103624,-4.526 3.696549,-7.33314 8.183658,-8.85975 25.001685,-16.05149 55.891191,-23.90022 1.923235,-0.48868 1.802207,-1.20845 -0.593344,-3.52872 -2.741718,-2.65557 -7.537355,-4.96773 -15.540482,-7.49268 -3.628596,-1.14481 -8.529753,-2.68763 -10.891461,-3.4285 -5.604074,-1.758 -9.814198,-3.87221 -11.119951,-5.58414 -2.986384,-3.91536 1.020966,-8.70314 11.672192,-13.94536 13.530511,-6.65931 29.802507,-10.80134 40.972419,-10.42951 4.929906,0.16411 6.735186,0.79346 6.735186,2.34798 0,1.25832 -0.42728,1.40218 -2.25226,0.75829 -4.984822,-1.75875 -18.40865,0.49499 -31.301399,5.25523 -8.0924,2.98786 -19.001703,8.9541 -20.469926,11.19489 -1.354032,2.06651 -0.470665,3.7511 2.691024,5.1318 0.96474,0.4213 6.754228,2.41509 12.865531,4.43066 12.141777,4.00447 16.469585,5.97422 19.958574,9.08391 1.14002,1.01608 2.412418,2.51319 2.827546,3.32691 0.70171,1.37547 0.838838,1.46152 1.950376,1.22396 1.624113,-0.34711 1.739376,-0.4659 3.92943,-4.0498 3.907682,-6.39469 10.461774,-12.19897 17.797834,-15.76169 8.37257,-4.0661 14.20967,-4.31643 16.57223,-0.71072 1.53879,2.34849 0.34706,7.0698 -1.78452,7.0698 -0.97412,0 -0.95184,0.18466 -0.47866,-3.96823 0.21821,-1.91504 0.1626,-2.15084 -0.63969,-2.71279 -0.50599,-0.35441 -1.60806,-0.61544 -2.59839,-0.61544 -8.04229,0 -20.6619,10.08884 -25.469006,20.3614 -3.216888,6.87433 -2.736257,14.81169 1.07282,17.71702 1.748986,1.33401 5.746736,1.62415 8.761336,0.63585 2.66083,-0.87231 7.472,-3.29804 10.16109,-5.12309 3.34152,-2.26784 5.73895,-6.66701 4.78015,-8.77135 -0.51378,-1.12763 -1.64108,-1.12372 -5.27788,0.0183 -4.17413,1.31079 -4.67357,1.38913 -5.41244,0.84884 -1.54888,-1.13257 0.98831,-2.80088 6.33295,-4.16421 2.82318,-0.72015 3.93636,-0.7155 5.78487,0.0241 2.14855,0.85968 2.76878,2.02382 2.71215,5.09056 -0.0259,1.40159 0.007,2.54835 0.0722,2.54835 0.40469,0 4.72755,-2.35378 5.0612,-2.7558 0.22329,-0.26905 1.23991,-2.51793 2.25916,-4.9975 5.21324,-12.68249 12.04223,-25.04577 14.74441,-26.69343 1.97803,-1.2061 4.36648,-0.81363 4.36648,0.7175 0,0.29998 -0.85363,1.88995 -1.89694,3.53328 -4.93247,7.76908 -13.89829,25.80043 -12.93136,26.00652 0.4589,0.0978 11.90931,-2.20577 13.81936,-2.78016 0.42676,-0.12833 1.7561,-2.45707 3.61593,-6.33435 3.29499,-6.86923 7.155,-14.04389 9.6132,-17.86817 2.24564,-3.49358 4.99073,-4.60363 6.12827,-2.47812 0.31792,0.59405 -0.15391,1.7103 -2.63851,6.24213 -1.66411,3.0353 -4.55088,8.54956 -6.41504,12.25392 l -3.38939,6.73519 1.22921,0.12217 c 0.67606,0.0672 4.01985,-0.13715 7.43065,-0.45411 8.58077,-0.79739 22.10399,-1.20014 22.10399,-0.6583 0,0.60219 -0.67642,0.70378 -11.59949,1.74218 -11.8549,1.12697 -20.23264,2.29997 -20.82264,2.91546 -0.63276,0.6601 -3.36107,8.32775 -4.43795,12.47244 -1.22131,4.70054 -1.5902,10.22372 -0.82788,12.39527 0.63583,1.81123 0.34017,2.21894 -1.09777,1.51376 -1.7857,-0.87572 -2.37605,-2.12972 -2.76289,-5.86878 -0.52472,-5.0718 0.56109,-12.61459 2.47547,-17.19634 0.64573,-1.54546 0.68696,-2.68071 0.0974,-2.68071 -0.89449,0 -12.51902,2.7069 -13.64658,3.17775 -1.01525,0.42396 -1.30344,0.8848 -2.14295,3.4268 -1.35204,4.09395 -2.03679,7.28633 -2.33544,10.88824 -0.29251,3.52771 -0.67181,3.82248 -2.2523,1.75034 -1.34322,-1.76105 -1.52562,-4.13278 -0.71528,-9.3005 0.34703,-2.21304 0.54345,-4.11121 0.43651,-4.21817 -0.10695,-0.10694 -1.35882,0.26238 -2.78194,0.82072 l -2.58748,1.01516 -1.7568,5.51102 c -2.06102,6.4653 -2.81099,10.30631 -2.81766,14.43067 -0.005,3.31968 0.82734,5.80074 2.19198,6.53108 0.92424,0.49464 1.02026,1.34153 0.1883,1.66079 -2.04079,0.78312 -4.24202,-0.55512 -5.65139,-3.43578 -0.88419,-1.80722 -1.06217,-2.70262 -1.18231,-5.9484 -0.16457,-4.44575 0.2984,-7.52091 1.80911,-12.01656 0.59745,-1.77794 1.02334,-3.29556 0.94642,-3.37248 -0.0769,-0.0769 -1.78238,0.79853 -3.78991,1.94545 -5.16027,2.94812 -7.77227,3.76785 -11.93272,3.74488 -2.24316,-0.0124 -3.804871,-0.2171 -4.677213,-0.61313 -5.525633,-2.50856 -7.8779,-7.28988 -7.134135,-14.50118 0.299053,-2.89951 0.269232,-3.76514 -0.114933,-3.33641 -0.07684,0.0858 -0.64476,2.18326 -1.262049,4.66114 -1.973783,7.923 -4.502123,11.98271 -11.031974,17.71387 -7.936386,6.96566 -21.364977,13.65016 -31.618864,15.73927 -4.329089,0.88201 -11.008373,1.24106 -14.080418,0.75692 z m 13.044635,-4.29236 c 9.229984,-2.39784 19.803891,-7.62075 27.314946,-13.49204 7.5718,-5.91877 11.489928,-11.65278 12.048288,-17.63215 0.205952,-2.20545 0.169413,-2.3633 -0.547057,-2.3633 -0.943248,0 -12.190709,3.41185 -19.56272,5.93423 -22.010619,7.53109 -37.315781,17.79232 -36.111668,24.21079 0.314284,1.67528 2.102682,3.39389 4.254374,4.08836 2.478678,0.8 7.884763,0.48008 12.603837,-0.74589 z"
       id="path2-5" /><path
       style="fill:#000000;stroke-width:0.751001"
       d="m 87.957353,825.31845 c -18.173309,-2.28994 -32.41222,-9.88453 -37.313147,-19.90167 -1.573422,-3.21596 -2.103695,-5.60665 -2.40129,-10.82602 -0.482884,-8.46906 0.720325,-12.4323 6.3507,-20.9185 19.458213,-29.32775 70.985844,-56.79768 153.058104,-81.59693 16.89341,-5.10458 58.06346,-16.27968 65.09162,-17.66832 7.44175,-1.47036 7.5091,-3.41482 0.38211,-11.03359 -11.58657,-12.38608 -31.48037,-21.83289 -70.21996,-33.34479 -41.08468,-12.20876 -54.90075,-17.21615 -65.18145,-23.62383 -16.15715,-10.07031 -16.8858,-21.84344 -2.25651,-36.45982 14.23276,-14.22021 49.89396,-32.31741 89.3695,-45.35286 55.90064,-18.45929 115.62339,-24.5603 127.86287,-13.0619 2.02845,1.90562 2.36384,5.56453 0.71658,7.8173 -1.14575,1.56691 -1.0309,1.58425 -11.33561,-1.71198 -4.68751,-1.49942 -25.60032,-1.68676 -34.54604,-0.30947 -34.38272,5.29359 -74.12518,17.32477 -107.01761,32.39728 -25.46557,11.66925 -48.14313,25.91995 -51.46281,32.3395 -0.60898,1.17765 -1.10725,3.80164 -1.10725,5.83108 0,3.0238 0.37273,4.06263 2.06479,5.75468 4.82513,4.82513 19.18861,10.43871 56.51327,22.08668 29.09276,9.07902 39.78638,12.92124 51.81906,18.61857 17.85869,8.4559 31.3087,19.02492 36.15477,28.41044 1.38698,2.68619 3.11517,5.07443 3.84043,5.30721 0.72526,0.23277 3.18793,-0.12018 5.4726,-0.78435 4.65996,-1.35469 5.09309,-1.85075 12.15122,-13.91645 10.10274,-17.27042 28.67922,-36.58164 46.77009,-48.61999 17.9641,-11.95398 39.4222,-21.13021 55.14106,-23.58023 18.32002,-2.85545 30.39551,4.14446 31.72585,18.39083 0.63892,6.84197 -1.21698,12.66613 -5.35458,16.80374 -1.76584,1.76583 -3.50854,3.20935 -3.87268,3.2078 -0.36414,-0.002 -1.79126,-0.69124 -3.1714,-1.53266 -1.83303,-1.11755 -2.37235,-1.87581 -2.00108,-2.81346 1.20621,-3.04627 3.38391,-12.61763 3.38391,-14.87283 0,-8.06139 -5.16685,-11.27305 -16.13152,-10.02716 -11.88672,1.35066 -23.92819,6.28159 -38.01628,15.56752 -31.64167,20.85605 -56.46907,54.11697 -61.46822,82.34815 -1.18174,6.67349 -0.99111,22.61523 0.33114,27.69168 2.47553,9.50418 8.06476,17.083 14.85576,20.14391 3.48015,1.56862 5.03318,1.76829 13.68853,1.75989 8.79264,-0.009 10.36016,-0.221 15.77102,-2.13764 14.2521,-5.04842 35.66506,-16.94408 44.11616,-24.50809 5.68972,-5.0925 11.19661,-15.73114 11.69264,-22.5888 0.28499,-3.93981 0.10487,-4.75852 -1.39898,-6.3593 -2.52685,-2.68971 -5.53766,-2.38278 -19.14596,1.95181 -14.3945,4.58502 -17.6224,5.13205 -20.22402,3.42741 -4.8726,-3.19265 -0.53201,-8.65927 9.89551,-12.46259 22.87587,-8.34373 37.59541,-7.95645 43.95901,1.15656 2.79953,4.0091 3.55918,8.75385 2.65013,16.55284 -0.40976,3.51554 -0.53135,6.60555 -0.27019,6.86672 0.26117,0.26116 1.73573,-0.27705 3.27681,-1.19603 1.54109,-0.91898 5.52646,-2.95821 8.85639,-4.53164 4.5618,-2.15549 6.4227,-3.49055 7.54824,-5.41533 0.8216,-1.40502 4.65452,-10.15846 8.5176,-19.4521 11.75731,-28.2853 22.32893,-49.93474 36.30531,-74.34908 12.98337,-22.67971 18.24733,-27.78703 28.63928,-27.78703 4.25252,0 6.26845,0.96682 7.21677,3.46109 0.9678,2.54549 -0.0762,4.82103 -8.13112,17.72244 -11.15912,17.87341 -15.53039,25.92773 -31.07952,57.26585 -15.34559,30.9279 -18.40041,37.75218 -17.36348,38.7891 0.32967,0.32968 5.83632,-0.57534 12.23698,-2.01113 6.40068,-1.4358 18.22762,-3.97557 26.2821,-5.64393 9.39953,-1.94697 15.10724,-3.4876 15.93649,-4.3016 0.71058,-0.69751 4.95998,-9.04106 9.4431,-18.54122 16.54533,-35.06115 39.52546,-76.20584 45.25525,-81.02715 3.45668,-2.9086 9.16444,-4.51202 12.33581,-3.46537 3.63312,1.19903 5.89187,4.22757 5.31273,7.12329 -0.24867,1.24331 -2.94876,6.65585 -6.00021,12.02787 -12.9923,22.87261 -40.97812,77.32232 -40.97812,79.72772 0,1.45059 4.31186,1.3068 25.58865,-0.85327 20.00557,-2.03102 38.93306,-3.05894 70.04928,-3.80425 l 20.16235,-0.48293 -0.54188,1.76055 c -0.29802,0.9683 -0.62411,1.85661 -0.72462,1.97401 -0.51007,0.59578 -11.50406,1.82506 -34.9277,3.90541 -38.96908,3.46101 -75.57931,8.03195 -84.21212,10.51424 -3.16422,0.90984 -3.6314,1.82047 -10.15844,19.80076 -5.48392,15.10674 -10.32264,31.57367 -11.94958,40.66621 -1.88315,10.52457 -1.98575,31.85772 -0.17246,35.86029 0.70172,1.54894 1.63104,2.81625 2.06517,2.81625 1.2409,0 0.92154,2.04157 -0.3986,2.54816 -3.70196,1.42057 -9.53158,-0.94856 -12.76483,-5.18756 -1.11306,-1.4593 -2.50371,-4.58846 -3.09034,-6.95369 -1.53628,-6.19412 -2.15666,-29.81099 -1.02026,-38.83936 1.117,-8.87409 6.59127,-31.2221 9.29182,-37.93264 1.08047,-2.68483 2.05978,-5.72638 2.17626,-6.75901 0.19656,-1.74272 -0.004,-1.86832 -2.79224,-1.74954 -3.4292,0.14609 -38.78394,7.80183 -46.25408,10.01591 -7.48878,2.2196 -8.48804,3.31693 -11.4806,12.60732 -6.28964,19.52612 -8.62651,31.08952 -9.12178,45.13686 -0.18053,5.12049 -0.48819,9.46995 -0.6837,9.66545 -0.69984,0.69985 -4.10332,-0.60801 -6.22237,-2.39108 -1.18674,-0.99857 -3.15601,-3.61779 -4.37614,-5.82047 -2.18368,-3.94218 -2.21728,-4.17536 -2.14619,-14.89439 0.0497,-7.49373 0.5604,-13.58272 1.63771,-19.52602 2.31043,-12.74636 2.35655,-13.9189 0.54166,-13.77232 -0.82532,0.0666 -5.21805,1.62576 -9.7616,3.46468 l -8.26101,3.34349 -5.75223,16.81234 c -6.7039,19.59385 -9.87557,31.90944 -11.58252,44.97487 -1.49112,11.4135 -1.0829,21.57797 1.15271,28.70229 1.36185,4.33986 2.15801,5.54188 5.69095,8.59199 4.44242,3.83531 4.80409,4.66835 2.79333,6.43404 -3.33595,2.92936 -9.41157,2.51319 -14.72895,-1.0089 -4.32097,-2.86209 -9.00188,-9.7932 -11.02289,-16.3218 -3.32409,-10.73802 -3.43989,-29.65785 -0.27569,-45.04491 0.97129,-4.72323 6.86633,-23.73997 8.94437,-28.85351 0.92741,-2.28212 -1.30385,-1.51774 -8.32648,2.85246 -9.92102,6.17387 -25.15198,13.50653 -31.71428,15.26824 -3.17482,0.8523 -9.08078,1.93645 -13.12436,2.40923 -25.15375,2.94097 -46.14474,-11.7336 -50.58327,-35.3622 -1.19324,-6.35224 -1.10238,-21.73497 0.18298,-30.97878 0.31905,-2.29448 0.21628,-3.56726 -0.28801,-3.56726 -0.43123,0 -1.84223,4.64682 -3.13557,10.32626 -3.07708,13.51245 -8.35613,29.87814 -12.00971,37.23154 -1.60608,3.23249 -4.8809,8.43719 -7.27738,11.566 -6.09297,7.95492 -22.45641,24.2911 -31.64966,31.59696 -33.78305,26.84729 -86.61641,50.44752 -123.96802,55.37548 -10.88643,1.43629 -30.959126,1.99599 -38.319937,1.06848 z m 36.093427,-14.94467 c 31.75234,-6.7935 70.63495,-23.88696 100.46948,-44.16809 13.33181,-9.0628 21.67173,-15.98208 31.64935,-26.25815 17.28276,-17.79968 26.16372,-35.50308 26.1956,-52.21855 0.01,-5.17969 -0.1428,-5.82025 -1.38722,-5.82025 -2.04348,0 -19.68032,5.0787 -41.48188,11.94511 -48.07932,15.14262 -72.54629,24.64435 -102.81396,39.92773 -24.86061,12.55313 -40.360911,22.92633 -52.592362,35.19614 -8.45989,8.48643 -12.227609,14.30938 -13.432731,20.76009 -1.806139,9.66779 5.10422,18.09738 17.876128,21.80618 5.228423,1.51827 26.177945,0.82804 35.517595,-1.17021 z"
       id="path4"
       transform="scale(0.26458333)" /></g></svg>
